<svg width="24" height="24" viewBox="0 0 24 24" fill="none" xmlns="http://www.w3.org/2000/svg">
<path d="M12.0026 7.66927C9.60844 7.66927 7.66927 9.60844 7.66927 12.0026C7.66927 14.3968 9.60844 16.3359 12.0026 16.3359C14.3968 16.3359 16.3359 14.3968 16.3359 12.0026C16.3359 9.60844 14.3968 7.66927 12.0026 7.66927ZM21.6876 10.9193C21.4422 8.7224 20.4571 6.67427 18.894 5.11119C17.3309 3.54811 15.2828 2.56299 13.0859 2.3176V0.0859375H10.9193V2.3176C8.7224 2.56299 6.67427 3.54811 5.11119 5.11119C3.54811 6.67427 2.56299 8.7224 2.3176 10.9193H0.0859375V13.0859H2.3176C2.56299 15.2828 3.54811 17.3309 5.11119 18.894C6.67427 20.4571 8.7224 21.4422 10.9193 21.6876V23.9193H13.0859V21.6876C15.2828 21.4422 17.3309 20.4571 18.894 18.894C20.4571 17.3309 21.4422 15.2828 21.6876 13.0859H23.9193V10.9193H21.6876ZM12.0026 19.5859C7.8101 19.5859 4.41927 16.1951 4.41927 12.0026C4.41927 7.8101 7.8101 4.41927 12.0026 4.41927C16.1951 4.41927 19.5859 7.8101 19.5859 12.0026C19.5859 16.1951 16.1951 19.5859 12.0026 19.5859Z" fill="#828282"/>
</svg>
