<svg width="22" height="24" viewBox="0 0 22 24" fill="none" xmlns="http://www.w3.org/2000/svg">
<path d="M10.9266 0.75C6.05156 0.75 1.88906 3.9 0.351562 8.25H21.5766C20.0016 3.9 15.8391 0.75 10.9266 0.75Z" fill="#F2B200"/>
<path d="M10.9266 23.25C15.8391 23.25 20.0016 20.1375 21.5391 15.75H0.351562C1.88906 20.1375 6.05156 23.25 10.9266 23.25Z" fill="#83BF4F"/>
<path d="M9.94531 9.75C10.0489 9.75 10.1328 9.66605 10.1328 9.5625C10.1328 9.45895 10.0489 9.375 9.94531 9.375C9.84176 9.375 9.75781 9.45895 9.75781 9.5625C9.75781 9.66605 9.84176 9.75 9.94531 9.75Z" fill="#428BC1"/>
<path d="M9.35156 10.0859C9.45512 10.0859 9.53906 10.002 9.53906 9.89844C9.53906 9.79488 9.45512 9.71094 9.35156 9.71094C9.24801 9.71094 9.16406 9.79488 9.16406 9.89844C9.16406 10.002 9.24801 10.0859 9.35156 10.0859Z" fill="#428BC1"/>
<path d="M8.85938 10.5781C8.96293 10.5781 9.04688 10.4942 9.04688 10.3906C9.04688 10.2871 8.96293 10.2031 8.85938 10.2031C8.75582 10.2031 8.67188 10.2871 8.67188 10.3906C8.67188 10.4942 8.75582 10.5781 8.85938 10.5781Z" fill="#428BC1"/>
<path d="M8.52344 11.1797C8.62699 11.1797 8.71094 11.0957 8.71094 10.9922C8.71094 10.8886 8.62699 10.8047 8.52344 10.8047C8.41988 10.8047 8.33594 10.8886 8.33594 10.9922C8.33594 11.0957 8.41988 11.1797 8.52344 11.1797Z" fill="#428BC1"/>
<path d="M8.33594 11.8516C8.43949 11.8516 8.52344 11.7676 8.52344 11.6641C8.52344 11.5605 8.43949 11.4766 8.33594 11.4766C8.23238 11.4766 8.14844 11.5605 8.14844 11.6641C8.14844 11.7676 8.23238 11.8516 8.33594 11.8516Z" fill="#428BC1"/>
<path d="M8.33594 12.5234C8.43949 12.5234 8.52344 12.4395 8.52344 12.3359C8.52344 12.2324 8.43949 12.1484 8.33594 12.1484C8.23238 12.1484 8.14844 12.2324 8.14844 12.3359C8.14844 12.4395 8.23238 12.5234 8.33594 12.5234Z" fill="#428BC1"/>
<path d="M8.52344 13.2031C8.62699 13.2031 8.71094 13.1192 8.71094 13.0156C8.71094 12.9121 8.62699 12.8281 8.52344 12.8281C8.41988 12.8281 8.33594 12.9121 8.33594 13.0156C8.33594 13.1192 8.41988 13.2031 8.52344 13.2031Z" fill="#428BC1"/>
<path d="M8.85938 13.8047C8.96293 13.8047 9.04688 13.7207 9.04688 13.6172C9.04688 13.5136 8.96293 13.4297 8.85938 13.4297C8.75582 13.4297 8.67188 13.5136 8.67188 13.6172C8.67188 13.7207 8.75582 13.8047 8.85938 13.8047Z" fill="#428BC1"/>
<path d="M9.35156 14.2891C9.45512 14.2891 9.53906 14.2051 9.53906 14.1016C9.53906 13.998 9.45512 13.9141 9.35156 13.9141C9.24801 13.9141 9.16406 13.998 9.16406 14.1016C9.16406 14.2051 9.24801 14.2891 9.35156 14.2891Z" fill="#428BC1"/>
<path d="M9.94531 14.625C10.0489 14.625 10.1328 14.5411 10.1328 14.4375C10.1328 14.3339 10.0489 14.25 9.94531 14.25C9.84176 14.25 9.75781 14.3339 9.75781 14.4375C9.75781 14.5411 9.84176 14.625 9.94531 14.625Z" fill="#428BC1"/>
<path d="M10.5859 14.7734C10.6895 14.7734 10.7734 14.6895 10.7734 14.5859C10.7734 14.4824 10.6895 14.3984 10.5859 14.3984C10.4824 14.3984 10.3984 14.4824 10.3984 14.5859C10.3984 14.6895 10.4824 14.7734 10.5859 14.7734Z" fill="#428BC1"/>
<path d="M11.1094 14.6234C11.1094 14.5109 11.1844 14.4359 11.2594 14.3984C11.3719 14.3984 11.4469 14.4734 11.4844 14.5484C11.4844 14.6609 11.4094 14.7359 11.3344 14.7734C11.1844 14.8109 11.1094 14.7359 11.1094 14.6234Z" fill="#428BC1"/>
<path d="M11.9375 14.625C12.0411 14.625 12.125 14.5411 12.125 14.4375C12.125 14.3339 12.0411 14.25 11.9375 14.25C11.8339 14.25 11.75 14.3339 11.75 14.4375C11.75 14.5411 11.8339 14.625 11.9375 14.625Z" fill="#428BC1"/>
<path d="M12.5391 14.2891C12.6426 14.2891 12.7266 14.2051 12.7266 14.1016C12.7266 13.998 12.6426 13.9141 12.5391 13.9141C12.4355 13.9141 12.3516 13.998 12.3516 14.1016C12.3516 14.2051 12.4355 14.2891 12.5391 14.2891Z" fill="#428BC1"/>
<path d="M13.0234 13.8047C13.127 13.8047 13.2109 13.7207 13.2109 13.6172C13.2109 13.5136 13.127 13.4297 13.0234 13.4297C12.9199 13.4297 12.8359 13.5136 12.8359 13.6172C12.8359 13.7207 12.9199 13.8047 13.0234 13.8047Z" fill="#428BC1"/>
<path d="M13.3594 13.2031C13.4629 13.2031 13.5469 13.1192 13.5469 13.0156C13.5469 12.9121 13.4629 12.8281 13.3594 12.8281C13.2558 12.8281 13.1719 12.9121 13.1719 13.0156C13.1719 13.1192 13.2558 13.2031 13.3594 13.2031Z" fill="#428BC1"/>
<path d="M13.5469 12.5234C13.6504 12.5234 13.7344 12.4395 13.7344 12.3359C13.7344 12.2324 13.6504 12.1484 13.5469 12.1484C13.4433 12.1484 13.3594 12.2324 13.3594 12.3359C13.3594 12.4395 13.4433 12.5234 13.5469 12.5234Z" fill="#428BC1"/>
<path d="M13.5453 11.8516C13.4328 11.8516 13.3578 11.7766 13.3203 11.7016C13.3203 11.5891 13.3953 11.5141 13.4703 11.4766C13.5828 11.4766 13.6578 11.5516 13.6953 11.6266C13.7328 11.7391 13.6578 11.8141 13.5453 11.8516Z" fill="#428BC1"/>
<path d="M13.3594 11.1797C13.4629 11.1797 13.5469 11.0957 13.5469 10.9922C13.5469 10.8886 13.4629 10.8047 13.3594 10.8047C13.2558 10.8047 13.1719 10.8886 13.1719 10.9922C13.1719 11.0957 13.2558 11.1797 13.3594 11.1797Z" fill="#428BC1"/>
<path d="M13.0234 10.5781C13.127 10.5781 13.2109 10.4942 13.2109 10.3906C13.2109 10.2871 13.127 10.2031 13.0234 10.2031C12.9199 10.2031 12.8359 10.2871 12.8359 10.3906C12.8359 10.4942 12.9199 10.5781 13.0234 10.5781Z" fill="#428BC1"/>
<path d="M12.5391 10.0859C12.6426 10.0859 12.7266 10.002 12.7266 9.89844C12.7266 9.79488 12.6426 9.71094 12.5391 9.71094C12.4355 9.71094 12.3516 9.79488 12.3516 9.89844C12.3516 10.002 12.4355 10.0859 12.5391 10.0859Z" fill="#428BC1"/>
<path d="M12.1234 9.63944C12.0859 9.75194 11.9734 9.78944 11.8609 9.75194C11.7484 9.71444 11.7109 9.60194 11.7484 9.48944C11.7859 9.37694 11.8984 9.33944 12.0109 9.37694C12.1234 9.45194 12.1609 9.56444 12.1234 9.63944ZM11.4484 9.41444C11.4484 9.52694 11.3359 9.60194 11.2234 9.56444C11.1109 9.56444 11.0359 9.45194 11.0734 9.33944C11.0734 9.22694 11.1859 9.15194 11.2984 9.18944C11.4109 9.22694 11.4859 9.33944 11.4484 9.41444ZM10.7734 9.37694C10.7734 9.48944 10.6984 9.56444 10.6234 9.60194C10.5109 9.60194 10.4359 9.52694 10.3984 9.45194C10.3984 9.33944 10.4734 9.26444 10.5484 9.22694C10.6609 9.18944 10.7734 9.26444 10.7734 9.37694Z" fill="#428BC1"/>
<path d="M10.9219 12.5625C11.2325 12.5625 11.4844 12.3107 11.4844 12C11.4844 11.6893 11.2325 11.4375 10.9219 11.4375C10.6112 11.4375 10.3594 11.6893 10.3594 12C10.3594 12.3107 10.6112 12.5625 10.9219 12.5625Z" fill="#428BC1"/>
<path d="M10.925 9.375L10.85 10.9875L10.925 12L11.0375 10.9875L10.925 9.375ZM10.25 9.45L10.5875 11.0625L10.925 12L10.775 10.9875L10.25 9.45Z" fill="#428BC1"/>
<path d="M9.61094 9.71094L10.3609 11.1734L10.9234 11.9984L10.5109 11.0609L9.61094 9.71094ZM9.08594 10.1234L10.1734 11.3609L10.9234 11.9984L10.2859 11.2109L9.08594 10.1234Z" fill="#428BC1"/>
<path d="M8.67188 10.6875L10.0219 11.5875L10.9219 12L10.0969 11.4L8.67188 10.6875Z" fill="#428BC1"/>
<path d="M8.40938 11.3281L9.94688 11.8156L10.9219 12.0031L9.98438 11.6656L8.40938 11.3281ZM8.29688 12.0031L9.94688 12.0781L10.9219 12.0031L9.94688 11.9281L8.29688 12.0031Z" fill="#428BC1"/>
<path d="M8.41406 12.675L9.98906 12.3375L10.9266 12L9.95156 12.1875L8.41406 12.675ZM8.67656 13.3125L10.1016 12.6L10.9266 12L10.0266 12.4125L8.67656 13.3125Z" fill="#428BC1"/>
<path d="M9.08594 13.8375L10.2859 12.7875L10.9234 12L10.1734 12.6375L9.08594 13.8375ZM9.61094 14.2875L10.5109 12.9L10.9234 12L10.3609 12.825L9.61094 14.2875Z" fill="#428BC1"/>
<path d="M10.25 14.55L10.775 13.0125L10.925 12L10.5875 12.9375L10.25 14.55ZM10.925 14.625L11.0375 13.0125L10.925 12L10.85 13.0125L10.925 14.625ZM11.6 14.55L11.3 12.9375L10.925 12L11.1125 13.0125L11.6 14.55Z" fill="#428BC1"/>
<path d="M12.2344 14.2875L11.5219 12.825L10.9219 12L11.3719 12.9375L12.2344 14.2875ZM12.7969 13.8375L11.7094 12.6375L10.9219 12L11.5969 12.7875L12.7969 13.8375Z" fill="#428BC1"/>
<path d="M13.2094 13.3156L11.8594 12.4156L10.9219 12.0031L11.7469 12.6031L13.2094 13.3156ZM13.4719 12.6781L11.9344 12.1906L10.9219 12.0031L11.8969 12.3406L13.4719 12.6781ZM13.5469 12.0031L11.9344 11.8906L10.9219 12.0031L11.9344 12.0781L13.5469 12.0031ZM13.4719 11.3281L11.8969 11.6656L10.9219 12.0031L11.9344 11.8156L13.4719 11.3281Z" fill="#428BC1"/>
<path d="M13.2094 10.6891L11.7469 11.4016L10.9219 12.0016L11.8594 11.5891L13.2094 10.6891ZM12.7969 10.1641L11.5969 11.2141L10.9219 12.0016L11.7094 11.3641L12.7969 10.1641Z" fill="#428BC1"/>
<path d="M12.2344 9.71094L11.3719 11.0984L10.9219 11.9984L11.5219 11.1734L12.2344 9.71094Z" fill="#428BC1"/>
<path d="M11.6344 9.45312L11.1094 10.9906L10.9219 12.0031L11.2969 11.0656L11.6344 9.45312Z" fill="#428BC1"/>
</svg>
