<svg width="82" height="77" viewBox="0 0 82 77" fill="none" xmlns="http://www.w3.org/2000/svg">
<rect x="67.1016" y="19.8828" width="14.1626" height="56.6503" rx="1.98773" fill="#636363"/>
<rect x="48.2109" y="36.4062" width="14.1626" height="40.1273" rx="1.98773" fill="#636363"/>
<rect x="29.3281" y="48.2109" width="14.1626" height="28.3252" rx="1.98773" fill="#636363"/>
<rect x="10.4453" y="62.3711" width="14.1626" height="14.1626" rx="1.98773" fill="#636363"/>
<path d="M71.5633 0.651031C71.3705 0.137083 70.7976 -0.123315 70.2837 0.0694152L61.9084 3.21014C61.3945 3.40287 61.1341 3.97575 61.3268 4.48969C61.5196 5.00364 62.0924 5.26404 62.6064 5.07131L70.0511 2.27955L72.8428 9.72423C73.0355 10.2382 73.6084 10.4986 74.1224 10.3058C74.6363 10.1131 74.8967 9.54024 74.704 9.02629L71.5633 0.651031ZM1 51.7492L1.03972 52.7423C31.0049 51.5437 59.6185 27.633 71.5375 1.41126L70.6327 1L69.7279 0.588736C58.0426 26.2965 30.0058 49.5943 0.960277 50.7562L1 51.7492Z" fill="#636363"/>
</svg>
