<svg width="82" height="78" viewBox="0 0 82 78" fill="none" xmlns="http://www.w3.org/2000/svg">
<rect x="67.0938" y="20.6602" width="14.1626" height="56.6503" rx="1.98773" fill="white"/>
<rect x="48.2109" y="37.1836" width="14.1626" height="40.1273" rx="1.98773" fill="white"/>
<rect x="29.3281" y="48.9844" width="14.1626" height="28.3252" rx="1.98773" fill="white"/>
<rect x="10.4453" y="63.1484" width="14.1626" height="14.1626" rx="1.98773" fill="white"/>
<path d="M71.5633 1.42837C71.3705 0.914427 70.7977 0.654029 70.2837 0.846759L61.9084 3.98748C61.3945 4.18021 61.1341 4.75309 61.3268 5.26704C61.5196 5.78098 62.0924 6.04138 62.6064 5.84865L70.0511 3.0569L72.8428 10.5016C73.0355 11.0155 73.6084 11.2759 74.1224 11.0832C74.6363 10.8905 74.8967 10.3176 74.704 9.80364L71.5633 1.42837ZM1 52.5266L1.03972 53.5196C31.0049 52.321 59.6185 28.4103 71.5375 2.18861L70.6327 1.77734L69.7279 1.36608C58.0426 27.0738 30.0058 50.3717 0.960277 51.5335L1 52.5266Z" fill="white"/>
</svg>
